<svg xmlns="http://www.w3.org/2000/svg" width="14" height="14" viewBox="0 0 14 14">
  <g id="e-remove" transform="translate(-1 -1)">
    <g id="Group_677" data-name="Group 677">
      <path id="Path_215" data-name="Path 215" d="M14.7,1.3a.967.967,0,0,0-1.4,0L8,6.6,2.7,1.3a.967.967,0,0,0-1.4,0,.967.967,0,0,0,0,1.4L6.6,8,1.3,13.3a.967.967,0,0,0,0,1.4A.908.908,0,0,0,2,15a.908.908,0,0,0,.7-.3L8,9.4l5.3,5.3a.967.967,0,0,0,1.4,0,.967.967,0,0,0,0-1.4L9.4,8l5.3-5.3A.967.967,0,0,0,14.7,1.3Z"/>
    </g>
  </g>
</svg>
