<svg xmlns="http://www.w3.org/2000/svg" width="16" height="12" viewBox="0 0 16 12">
  <g id="money-11" transform="translate(0 -2)" opacity="0.25">
    <g id="Group_606" data-name="Group 606">
      <path id="Path_201" data-name="Path 201" d="M15,2H1A.945.945,0,0,0,0,3V13a.945.945,0,0,0,1,1H15a.945.945,0,0,0,1-1V3A.945.945,0,0,0,15,2ZM11.1,12H4.9A4.23,4.23,0,0,0,2,9.1V6.9A4.23,4.23,0,0,0,4.9,4h6.3a4.23,4.23,0,0,0,2.9,2.9V9.2A3.9,3.9,0,0,0,11.1,12Z"/>
      <circle id="Ellipse_37" data-name="Ellipse 37" cx="2" cy="2" r="2" transform="translate(6 6)"/>
    </g>
  </g>
</svg>
