<svg id="Group_454" data-name="Group 454" xmlns="http://www.w3.org/2000/svg" width="9.999" height="12" viewBox="0 0 9.999 12">
  <path id="Path_176" data-name="Path 176" d="M10.5,2H9V.5A.472.472,0,0,0,8.5,0h-3A.472.472,0,0,0,5,.5V2H3.5A1.473,1.473,0,0,0,2,3.5v1H12v-1A1.473,1.473,0,0,0,10.5,2ZM6,1H8V2H6Z" transform="translate(-1.999 0.002)" fill="#00113f"/>
  <path id="Path_177" data-name="Path 177" d="M2,11v5a.5.5,0,0,0,.5.5H3V17a.472.472,0,0,0,.5.5A.472.472,0,0,0,4,17v-.5h6V17a.5.5,0,0,0,1,0v-.5h.5A.5.5,0,0,0,12,16V11Zm6,2.5H6a.5.5,0,1,1,0-1H8a.5.5,0,1,1,0,1Z" transform="translate(-2 -5.5)" fill="#00113f"/>
</svg>
