<svg id="briefcase-26" xmlns="http://www.w3.org/2000/svg" width="12" height="12" viewBox="0 0 12 12">
  <g id="Group_455" data-name="Group 455">
    <path id="Path_178" data-name="Path 178" d="M1.5,22h10a.5.5,0,0,0,.5-.5V20H1v1.5A.5.5,0,0,0,1.5,22Z" transform="translate(-0.5 -10)" fill="#00113f"/>
    <path id="Path_179" data-name="Path 179" d="M11.5,2h-3V.5A.5.5,0,0,0,8,0H4a.5.5,0,0,0-.5.5V2H.5a.5.5,0,0,0-.5.5v6A.5.5,0,0,0,.5,9h11a.5.5,0,0,0,.5-.5v-6A.5.5,0,0,0,11.5,2Zm-7-1h3V2h-3ZM8,6.5H4v-2H8Z" fill="#00113f"/>
  </g>
</svg>
