<svg xmlns="http://www.w3.org/2000/svg" width="10.5" height="12" viewBox="0 0 10.5 12">
  <g id="cutlery-76" transform="translate(-1)">
    <g id="Group_503" data-name="Group 503" transform="translate(1)">
      <path id="Path_181" data-name="Path 181" d="M10,3V8.25h1.5v2.625A1.153,1.153,0,0,0,12.625,12h0a1.153,1.153,0,0,0,1.125-1.125V0C11.125,0,10,1.35,10,3Z" transform="translate(-3.25)" fill="#00113f"/>
      <path id="Path_182" data-name="Path 182" d="M3.625,0A2.657,2.657,0,0,0,1,2.625v1.5a2.672,2.672,0,0,0,1.5,2.4v4.35A1.153,1.153,0,0,0,3.625,12,1.153,1.153,0,0,0,4.75,10.875V6.525a2.672,2.672,0,0,0,1.5-2.4v-1.5A2.657,2.657,0,0,0,3.625,0Z" transform="translate(-1)" fill="#00113f"/>
    </g>
  </g>
</svg>
