<svg id="armchair" xmlns="http://www.w3.org/2000/svg" width="12" height="12" viewBox="0 0 12 12">
  <g id="Group_505" data-name="Group 505">
    <path id="Path_184" data-name="Path 184" d="M4.25,4.837V6h4.5V4.875A2.655,2.655,0,0,1,11,2.292V1.5A1.5,1.5,0,0,0,9.5,0h-6A1.5,1.5,0,0,0,2,1.5v.8A2.643,2.643,0,0,1,4.25,4.838Z" transform="translate(-0.5)" fill="#00113f"/>
    <path id="Path_185" data-name="Path 185" d="M10.875,5A1.154,1.154,0,0,0,9.75,6.125V8.75H2.25V6.125A1.154,1.154,0,0,0,1.125,5,1.154,1.154,0,0,0,0,6.125V11a.75.75,0,0,0,.75.75H1.5v1.5H3v-1.5H9v1.5h1.5v-1.5h.75A.75.75,0,0,0,12,11V6.125A1.154,1.154,0,0,0,10.875,5Z" transform="translate(0 -1.25)" fill="#00113f"/>
  </g>
</svg>
