<svg xmlns="http://www.w3.org/2000/svg" width="11.096" height="12.79" viewBox="0 0 11.096 12.79">
  <g id="Group_636" data-name="Group 636" transform="translate(0)">
    <path id="Path_212" data-name="Path 212" d="M6.587,0A5.552,5.552,0,0,0,1,5.587,5.365,5.365,0,0,0,2.676,9.577c.08.08,3.272,2.953,3.352,3.033a.837.837,0,0,0,1.038,0c.08-.08,3.352-2.953,3.352-3.033a5.365,5.365,0,0,0,1.676-3.991A5.437,5.437,0,0,0,6.587,0Zm0,7.183a1.6,1.6,0,1,1,1.6-1.6A1.6,1.6,0,0,1,6.587,7.183Z" transform="translate(-1)" fill="#dbe2f6"/>
  </g>
</svg>
