<svg xmlns="http://www.w3.org/2000/svg" width="16" height="16" viewBox="0 0 16 16">
  <g id="pen" transform="translate(0)" opacity="0.75">
    <g id="Group_692" data-name="Group 692" transform="translate(0)">
      <path id="Path_219" data-name="Path 219" d="M8.616,2.677,1.646,9.646a.5.5,0,0,0-.128.222l-1.5,5.5a.5.5,0,0,0,.614.614l5.5-1.5a.5.5,0,0,0,.222-.128l6.969-6.97Z" transform="translate(0 0)" fill="#252525"/>
      <path id="Path_220" data-name="Path 220" d="M15.561,3.025,12.975.439a1.5,1.5,0,0,0-2.121,0L9.677,1.616l4.707,4.707,1.177-1.177a1.5,1.5,0,0,0,0-2.121Z" transform="translate(0 0)" fill="#252525"/>
    </g>
  </g>
</svg>
