<svg xmlns="http://www.w3.org/2000/svg" width="16.001" height="14" viewBox="0 0 16.001 14">
  <g id="plane" transform="translate(0.001)">
    <g id="Group_616" data-name="Group 616" transform="translate(-0.001)">
      <path id="Path_203" data-name="Path 203" d="M15.963,7.066A2.588,2.588,0,0,0,13.389,5H3.808L2.946,3.276A.5.5,0,0,0,2.5,3H.5a.5.5,0,0,0-.475.658L1.683,8.632A2,2,0,0,0,3.58,10H6.616L4.07,14.243A.5.5,0,0,0,4.5,15H7.65a2.01,2.01,0,0,0,1.715-.971L11.782,10H13.5A2.5,2.5,0,0,0,16,7.5a2.586,2.586,0,0,0-.037-.434Z" transform="translate(0.001 -1)"/>
      <path id="Path_204" data-name="Path 204" d="M6.052,3.724A.5.5,0,0,0,6.5,4h3a.5.5,0,0,0,.447-.724L9.361,2.105A1.989,1.989,0,0,0,7.572,1H5.5a.5.5,0,0,0-.447.724Z" transform="translate(0.001 -1)"/>
    </g>
  </g>
</svg>
