<svg id="ranking" xmlns="http://www.w3.org/2000/svg" width="32.071" height="28.472" viewBox="0 0 32.071 28.472">
  <g id="Group_573" data-name="Group 573" transform="translate(0 0)">
    <path id="Path_197" data-name="Path 197" d="M23.207,34.064a1.078,1.078,0,0,1-.52-.134L8.552,26.157H2V24H8.829a1.078,1.078,0,0,1,.52.134L23.112,31.7,32.4,24.647l1.3,1.715-9.844,7.482a1.078,1.078,0,0,1-.652.22Z" transform="translate(-1.631 -9.555)" fill="#ff7163"/>
    <path id="Path_198" data-name="Path 198" d="M3.416,32.379l-1.929-.965L12.034,10.321a1.078,1.078,0,0,1,1.446-.482,1.021,1.021,0,0,1,.144.087l9.187,6.562L31.8,3.907l1.756,1.254L23.941,18.619a1.078,1.078,0,0,1-1.5.251h0L13.4,12.414Z" transform="translate(-1.487 -3.907)" fill="#072ff7"/>
  </g>
</svg>
