<svg xmlns="http://www.w3.org/2000/svg" width="21.497" height="21.5" viewBox="0 0 21.497 21.5">
  <g id="search-normal-1" transform="translate(-1.25)" opacity="0.5">
    <g id="Group_420" data-name="Group 420" transform="translate(1.25)">
      <path id="Path_168" data-name="Path 168" d="M11.5,21.75A10.25,10.25,0,1,1,21.75,11.5,10.264,10.264,0,0,1,11.5,21.75Zm0-19a8.75,8.75,0,1,0,8.75,8.75A8.76,8.76,0,0,0,11.5,2.75Z" transform="translate(-1.25 -1.25)" fill="#00113f"/>
      <path id="Path_169" data-name="Path 169" d="M22,22.75a.742.742,0,0,1-.53-.22l-2-2a.75.75,0,1,1,1.06-1.06l2,2a.754.754,0,0,1,0,1.06.742.742,0,0,1-.53.22Z" transform="translate(-1.25 -1.25)" fill="#00113f"/>
    </g>
  </g>
</svg>
