<svg xmlns="http://www.w3.org/2000/svg" width="19.5" height="11.5" viewBox="0 0 19.5 11.5">
  <g id="sort" transform="translate(-2.25)">
    <g id="Group_439" data-name="Group 439" transform="translate(2.25)">
      <path id="Path_173" data-name="Path 173" d="M21,7.75H3a.75.75,0,0,1,0-1.5H21a.75.75,0,0,1,0,1.5Z" transform="translate(-2.25 -6.25)" fill="#292d32"/>
      <path id="Path_174" data-name="Path 174" d="M18,12.75H6a.75.75,0,0,1,0-1.5H18a.75.75,0,0,1,0,1.5Z" transform="translate(-2.25 -6.25)" fill="#292d32"/>
      <path id="Path_175" data-name="Path 175" d="M14,17.75H10a.75.75,0,0,1,0-1.5h4a.75.75,0,0,1,0,1.5Z" transform="translate(-2.25 -6.25)" fill="#292d32"/>
    </g>
  </g>
</svg>
