<svg id="Group_432" data-name="Group 432" xmlns="http://www.w3.org/2000/svg" width="16" height="16" viewBox="0 0 16 16">
  <path id="Path_170" data-name="Path 170" d="M9.25,17.25a8,8,0,1,1,8-8A8.007,8.007,0,0,1,9.25,17.25Zm0-14.884A6.884,6.884,0,1,0,16.134,9.25,6.892,6.892,0,0,0,9.25,2.366Z" transform="translate(-1.25 -1.25)" fill="#252525"/>
  <path id="Path_171" data-name="Path 171" d="M8.979,13.749a.552.552,0,0,1-.394-.164.561.561,0,0,1,0-.789L12.8,8.584a.558.558,0,1,1,.789.789L9.373,13.585A.54.54,0,0,1,8.979,13.749Z" transform="translate(-3.085 -3.085)" fill="#252525"/>
  <path id="Path_172" data-name="Path 172" d="M13.191,13.749a.552.552,0,0,1-.394-.164L8.584,9.373a.558.558,0,0,1,.789-.789L13.585,12.8a.561.561,0,0,1,0,.789.552.552,0,0,1-.394.164Z" transform="translate(-3.085 -3.085)" fill="#252525"/>
</svg>
