<svg width="430" height="1991" viewBox="0 0 430 1991" fill="none" xmlns="http://www.w3.org/2000/svg">
<path d="M11.6185 675.482L-552.021 965.443C-577.864 978.66 -599.544 998.772 -614.661 1023.55C-629.778 1048.33 -637.742 1076.81 -637.671 1105.84L-637.69 1219.44C-637.69 1223.43 -636.781 1227.37 -635.033 1230.96C-633.286 1234.55 -630.744 1237.69 -627.601 1240.15C-624.458 1242.61 -620.796 1244.33 -616.893 1245.16C-612.99 1246 -608.947 1245.94 -605.071 1244.98L11.6185 1092.7L11.6185 675.482Z" fill="#CCD9FE"/>
<path fill-rule="evenodd" clip-rule="evenodd" d="M18.0095 208.305C18.0095 99.3023 133.818 -86.1353 215.207 -86.1354C296.559 -86.1354 412.373 99.3058 412.373 208.308L412.376 1846.42C412.375 1910.73 405.007 1974.84 390.418 2037.48L342.071 2244.99L247.078 2244.99L247.078 2560.09C242.779 2562.5 238.203 2564.43 233.434 2565.83C222.797 2568.95 211.543 2569.32 200.726 2566.9C189.909 2564.47 179.884 2559.35 171.592 2551.99C163.3 2544.63 157.013 2535.29 153.319 2524.84L39.9105 2037.35C25.3639 1974.79 18.0213 1910.77 18.0274 1846.55L18.0095 208.305Z" fill="white"/>
<path d="M418.581 675.485L982.221 965.446C1008.06 978.663 1029.74 998.775 1044.86 1023.55C1059.98 1048.33 1067.94 1076.81 1067.87 1105.84L1067.89 1219.44C1067.89 1223.43 1066.98 1227.37 1065.23 1230.96C1063.49 1234.55 1060.94 1237.69 1057.8 1240.15C1054.66 1242.62 1051 1244.33 1047.09 1245.17C1043.19 1246 1039.15 1245.94 1035.27 1244.99L418.581 1092.7L418.581 675.485Z" fill="#CCD9FE"/>
</svg>
