<svg width="14" height="11" viewBox="0 0 14 11" fill="none" xmlns="http://www.w3.org/2000/svg">
<path d="M5.24412 10.0356C4.97907 10.0358 4.72478 9.93074 4.53712 9.74356L0.29512 5.50556C0.106816 5.31818 0.000659439 5.06368 3.06191e-06 4.79803C-0.000653315 4.53239 0.104244 4.27736 0.29162 4.08906C0.478995 3.90075 0.7335 3.7946 0.999145 3.79394C1.26479 3.79329 1.51982 3.89818 1.70812 4.08556L5.24312 7.62056L11.6081 1.25756C11.701 1.16465 11.8112 1.09093 11.9325 1.04063C12.0539 0.990319 12.1839 0.964402 12.3153 0.964356C12.4466 0.964309 12.5767 0.990134 12.6981 1.04036C12.8194 1.09058 12.9297 1.16421 13.0226 1.25706C13.1155 1.3499 13.1892 1.46014 13.2396 1.58147C13.2899 1.7028 13.3158 1.83286 13.3158 1.9642C13.3159 2.09555 13.29 2.22562 13.2398 2.34699C13.1896 2.46836 13.116 2.57865 13.0231 2.67156L5.95112 9.74356C5.76346 9.93074 5.50917 10.0358 5.24412 10.0356Z" fill="#FC1A02"/>
</svg>
