<svg width="14" height="10" viewBox="0 0 14 10" fill="none" xmlns="http://www.w3.org/2000/svg">
<path d="M5.58592 9.0712C5.32087 9.07141 5.06657 8.96638 4.87892 8.7792L0.636917 4.5412C0.448613 4.35383 0.342456 4.09932 0.3418 3.83368C0.341144 3.56803 0.446041 3.31301 0.633417 3.1247C0.820792 2.9364 1.0753 2.83024 1.34094 2.82959C1.60659 2.82893 1.86161 2.93383 2.04992 3.1212L5.58492 6.6562L11.9499 0.293203C12.0428 0.200292 12.153 0.126579 12.2743 0.0762712C12.3957 0.0259635 12.5257 4.64928e-05 12.6571 6.24957e-08C12.7884 -4.63678e-05 12.9185 0.0257786 13.0399 0.0760006C13.1612 0.126223 13.2715 0.199858 13.3644 0.292703C13.4573 0.385547 13.531 0.495783 13.5813 0.617115C13.6317 0.738447 13.6576 0.868501 13.6576 0.999849C13.6577 1.1312 13.6318 1.26127 13.5816 1.38264C13.5314 1.504 13.4578 1.61429 13.3649 1.7072L6.29292 8.7792C6.10526 8.96638 5.85097 9.07141 5.58592 9.0712Z" fill="#2CBB29"/>
</svg>
