<svg width="14" height="15" viewBox="0 0 14 15" fill="none" xmlns="http://www.w3.org/2000/svg">
<path d="M11.199 10.0051C11.199 7.9655 9.56978 7.26025 8.11466 6.83063V3.72263C8.55112 3.80082 8.97673 3.93065 9.38253 4.10938L10.1648 4.49612L10.94 2.92637L10.1525 2.53963C9.50487 2.248 8.8185 2.05143 8.11466 1.956V0.5H6.36466V1.96038C4.51491 2.23863 3.32403 3.3875 3.32403 4.994C3.32403 7.01263 4.92091 7.724 6.36466 8.15537V11.3054C5.63334 11.2412 4.91257 11.0881 4.21828 10.8495L3.39491 10.552L2.80078 12.1979L3.62416 12.4954C4.50868 12.8058 5.42998 12.9994 6.36466 13.0711V14.5H8.11466V13.0501C10.8718 12.7115 11.199 10.8486 11.199 10.0051ZM5.07403 4.994C5.07403 4.20125 5.74253 3.87138 6.36466 3.7375V6.31437C5.47916 5.99937 5.07403 5.6625 5.07403 4.994ZM8.11466 11.2861V8.66813C9.03341 8.9875 9.44903 9.3235 9.44903 10.0051C9.44903 10.3149 9.44378 11.0551 8.11466 11.2861Z" fill="#001140"/>
</svg>
