<svg width="18" height="15" viewBox="0 0 18 15" fill="none" xmlns="http://www.w3.org/2000/svg">
<path d="M16.7989 12.5263L10.4819 0.880306C10.3261 0.591371 10.0885 0.354828 9.79888 0.200306C9.4054 -0.0102628 8.9447 -0.0569536 8.51697 0.0703896C8.08925 0.197733 7.7291 0.488809 7.51488 0.880306L1.19888 12.5263C1.06077 12.7826 0.991716 13.0704 0.998503 13.3614C1.00529 13.6525 1.08768 13.9368 1.23758 14.1863C1.38749 14.4359 1.59974 14.6422 1.85349 14.7849C2.10724 14.9276 2.39375 15.0018 2.68488 15.0003H15.3129C15.5919 15.0003 15.8667 14.9316 16.1129 14.8003C16.3079 14.6968 16.4806 14.5556 16.6208 14.3851C16.7611 14.2145 16.8662 14.0178 16.93 13.8064C16.9939 13.595 17.0153 13.373 16.9929 13.1533C16.9706 12.9336 16.904 12.7205 16.7989 12.5263ZM8.99888 13.0003C8.8011 13.0003 8.60776 12.9417 8.44331 12.8318C8.27886 12.7219 8.15069 12.5657 8.075 12.383C7.99931 12.2003 7.97951 11.9992 8.01809 11.8052C8.05668 11.6112 8.15192 11.4331 8.29177 11.2932C8.43162 11.1533 8.60981 11.0581 8.80379 11.0195C8.99777 10.9809 9.19883 11.0007 9.38156 11.0764C9.56429 11.1521 9.72046 11.2803 9.83035 11.4447C9.94023 11.6092 9.99888 11.8025 9.99888 12.0003C9.99888 12.2655 9.89352 12.5199 9.70598 12.7074C9.51845 12.8949 9.26409 13.0003 8.99888 13.0003ZM9.99888 9.50031C9.99888 9.63291 9.9462 9.76009 9.85243 9.85386C9.75866 9.94763 9.63148 10.0003 9.49888 10.0003H8.49888C8.36627 10.0003 8.23909 9.94763 8.14532 9.85386C8.05156 9.76009 7.99888 9.63291 7.99888 9.50031V5.50031C7.99888 5.3677 8.05156 5.24052 8.14532 5.14675C8.23909 5.05298 8.36627 5.00031 8.49888 5.00031H9.49888C9.63148 5.00031 9.75866 5.05298 9.85243 5.14675C9.9462 5.24052 9.99888 5.3677 9.99888 5.50031V9.50031Z" fill="#B92313"/>
</svg>
