<svg width="9" height="7" viewBox="0 0 9 7" fill="none" xmlns="http://www.w3.org/2000/svg">
<path d="M1.02598 0.766001L2.69627 2.23567L4.18438 0.403411C4.22605 0.352187 4.27874 0.311025 4.33852 0.282988C4.3983 0.254952 4.46364 0.240764 4.52967 0.241481C4.5957 0.242198 4.66071 0.257802 4.71988 0.287131C4.77904 0.316459 4.83082 0.358757 4.87137 0.410873L6.29144 2.23524L8.01571 0.744491C8.08343 0.686068 8.16737 0.649722 8.25631 0.640315C8.34524 0.630909 8.43493 0.648892 8.51337 0.691858C8.5918 0.734823 8.65524 0.800721 8.6952 0.880732C8.73516 0.960743 8.74972 1.05105 8.73694 1.13956L8.07849 5.6816H0.970234L0.301681 1.1602C0.288401 1.07119 0.302798 0.98025 0.342923 0.899698C0.383047 0.819145 0.44696 0.752871 0.526004 0.709851C0.605049 0.666832 0.695405 0.649146 0.784836 0.65919C0.874267 0.669233 0.95845 0.70652 1.02598 0.766001ZM1.00447 6.12057H8.02801V6.55954C8.02801 6.67596 7.98176 6.78761 7.89943 6.86994C7.81711 6.95226 7.70546 6.99851 7.58904 6.99851H1.44344C1.32702 6.99851 1.21537 6.95226 1.13305 6.86994C1.05072 6.78761 1.00447 6.67596 1.00447 6.55954V6.12057Z" fill="white"/>
</svg>
