<svg width="20" height="21" viewBox="0 0 20 21" fill="none" xmlns="http://www.w3.org/2000/svg">
<path d="M17.6286 9.32203C17.1311 8.62153 16.5754 7.96421 15.9675 7.35706L13.2874 10.0372C13.3132 10.1889 13.3286 10.3421 13.3333 10.4958C13.3333 11.3797 12.9822 12.2274 12.3572 12.8524C11.7322 13.4774 10.8845 13.8285 10.0006 13.8285C9.84688 13.8238 9.69366 13.8084 9.54203 13.7826L7.37109 15.9535C8.20337 16.3054 9.09701 16.4894 10.0006 16.4947C13.8053 16.4947 16.6028 13.1207 17.6292 11.6689C17.871 11.3254 18.0007 10.9155 18.0006 10.4954C18.0004 10.0753 17.8705 9.66547 17.6286 9.32203Z" fill="#001140"/>
<path d="M10 4.49695C6.1954 4.49695 3.40124 7.871 2.37143 9.32274C2.12972 9.66618 2 10.0759 2 10.4959C2 10.9158 2.12972 11.3255 2.37143 11.669C3.25098 12.9227 4.32785 14.0257 5.56019 14.9351L7.64248 12.8528C7.33296 12.5433 7.08743 12.1759 6.91991 11.7715C6.75239 11.3672 6.66615 10.9338 6.66612 10.4961C6.66605 9.61215 7.01714 8.76438 7.64214 8.13929C8.26714 7.5142 9.11486 7.16299 9.99881 7.16293C10.8828 7.16287 11.7305 7.51395 12.3556 8.13896L7.64248 12.8528L14.4419 6.054C13.1616 5.08135 11.6075 4.53656 10 4.49695Z" fill="#001140"/>
<path d="M2.66836 18.4944C2.53655 18.4944 2.40771 18.4553 2.29812 18.382C2.18853 18.3088 2.10312 18.2047 2.05268 18.0829C2.00225 17.9611 1.98905 17.8271 2.01475 17.6979C2.04046 17.5686 2.10392 17.4498 2.19711 17.3566L16.8611 2.6926C16.9868 2.57118 17.1552 2.504 17.33 2.50552C17.5047 2.50704 17.6719 2.57714 17.7955 2.70072C17.9191 2.8243 17.9892 2.99148 17.9907 3.16625C17.9922 3.34101 17.925 3.50938 17.8036 3.6351L3.13961 18.2991C3.01463 18.4241 2.84512 18.4944 2.66836 18.4944Z" fill="#001140"/>
</svg>
