<svg width="40" height="41" viewBox="0 0 40 41" fill="none" xmlns="http://www.w3.org/2000/svg">
<rect y="0.5" width="40" height="40" rx="6" fill="#EAEFFF"/>
<g clip-path="url(#clip0_436_9845)">
<path d="M20 15.5C21.933 15.5 23.5 13.933 23.5 12C23.5 10.067 21.933 8.5 20 8.5C18.067 8.5 16.5 10.067 16.5 12C16.5 13.933 18.067 15.5 20 15.5Z" fill="#0236C7"/>
<path d="M15.9999 21.4999H23.9999V18.6209L30.1209 12.4999L28.5919 10.9709L22.1929 16.4999H17.8069L11.4079 10.9709L9.87891 12.4999L15.9999 18.6209V21.4999Z" fill="#0236C7"/>
<path d="M18.2266 25.081L15.6996 23.062L13.7996 25.6C13.6209 25.8385 13.5173 26.1248 13.502 26.4224C13.4867 26.72 13.5603 27.0154 13.7136 27.271L16.7136 32.271L18.6616 31.1L16.8046 26.59L18.2266 25.081Z" fill="#0236C7"/>
<path d="M21.7729 25.081L24.2999 23.062L26.1999 25.6C26.3786 25.8385 26.4822 26.1248 26.4975 26.4224C26.5128 26.72 26.4392 27.0154 26.2859 27.271L23.2859 32.271L21.3379 31.1L23.1949 26.59L21.7729 25.081Z" fill="#0236C7"/>
</g>
<defs>
<clipPath id="clip0_436_9845">
<rect width="24" height="24" fill="white" transform="translate(8 8.5)"/>
</clipPath>
</defs>
</svg>
