<svg width="40" height="41" viewBox="0 0 40 41" fill="none" xmlns="http://www.w3.org/2000/svg">
<rect y="0.5" width="40" height="40" rx="6" fill="#EAEFFF"/>
<g clip-path="url(#clip0_436_9868)">
<path d="M16.9997 24.9999C16.7031 24.9998 16.4131 24.9118 16.1665 24.747C15.9199 24.5822 15.7277 24.3479 15.6142 24.0739C15.5007 23.7998 15.471 23.4983 15.5288 23.2073C15.5867 22.9164 15.7295 22.6492 15.9392 22.4394L27.9392 10.4394C28.2221 10.1661 28.601 10.0149 28.9943 10.0184C29.3876 10.0218 29.7638 10.1795 30.0419 10.4577C30.32 10.7358 30.4778 11.112 30.4812 11.5053C30.4846 11.8986 30.3334 12.2775 30.0602 12.5604L18.0602 24.5604C17.7789 24.8417 17.3975 24.9998 16.9997 24.9999Z" fill="#0236C7"/>
<path d="M31.9289 25.6914C31.761 24.7915 31.3242 23.9637 30.6762 23.3172C30.0281 22.6708 29.1992 22.236 28.2989 22.0704C27.3341 21.8949 26.3383 22.0436 25.4669 22.4934C24.3507 23.1162 23.101 23.4614 21.8234 23.4999H21.2414L19.1204 25.6209C18.8436 25.9074 18.5126 26.136 18.1466 26.2932C17.7806 26.4504 17.3869 26.5332 16.9886 26.5367C16.5903 26.5401 16.1952 26.4642 15.8265 26.3134C15.4578 26.1625 15.1229 25.9398 14.8412 25.6581C14.5595 25.3764 14.3368 25.0415 14.1859 24.6728C14.0351 24.3041 13.9592 23.909 13.9626 23.5107C13.9661 23.1124 14.0489 22.7187 14.2061 22.3527C14.3633 21.9867 14.5919 21.6557 14.8784 21.3789L15.7379 20.5194L14.7749 12.8214C14.676 12.0322 14.2678 11.3146 13.64 10.8263C13.0122 10.338 12.2161 10.119 11.4269 10.2174L9.38989 10.4709C9.19436 10.4954 9.00557 10.5581 8.83431 10.6556C8.66304 10.7531 8.51266 10.8833 8.39174 11.0389C8.27083 11.1945 8.18176 11.3724 8.12963 11.5624C8.07749 11.7525 8.06331 11.9509 8.08789 12.1464L10.1159 28.3719C10.2067 29.0986 10.5602 29.767 11.1098 30.2511C11.6594 30.7352 12.367 31.0015 13.0994 30.9999H27.4994C28.159 31.0003 28.8107 30.8557 29.4083 30.5762C30.0058 30.2968 30.5346 29.8894 30.9573 29.3829C31.3799 28.8765 31.686 28.2832 31.8539 27.6453C32.0218 27.0074 32.0474 26.3403 31.9289 25.6914ZM27.4994 27.9999C27.2027 27.9999 26.9127 27.9119 26.666 27.7471C26.4194 27.5823 26.2271 27.348 26.1136 27.0739C26 26.7998 25.9703 26.4982 26.0282 26.2073C26.0861 25.9163 26.2289 25.649 26.4387 25.4392C26.6485 25.2295 26.9158 25.0866 27.2068 25.0287C27.4977 24.9709 27.7993 25.0006 28.0734 25.1141C28.3475 25.2276 28.5818 25.4199 28.7466 25.6666C28.9114 25.9132 28.9994 26.2032 28.9994 26.4999C28.9994 26.8977 28.8414 27.2793 28.56 27.5606C28.2787 27.8419 27.8972 27.9999 27.4994 27.9999Z" fill="#0236C7"/>
</g>
<defs>
<clipPath id="clip0_436_9868">
<rect width="24" height="24" fill="white" transform="translate(8 8.5)"/>
</clipPath>
</defs>
</svg>
