<svg width="40" height="41" viewBox="0 0 40 41" fill="none" xmlns="http://www.w3.org/2000/svg">
<rect y="0.5" width="40" height="40" rx="6" fill="#FFF2F0"/>
<g clip-path="url(#clip0_436_9835)">
<path d="M20 15.5C21.933 15.5 23.5 13.933 23.5 12C23.5 10.067 21.933 8.5 20 8.5C18.067 8.5 16.5 10.067 16.5 12C16.5 13.933 18.067 15.5 20 15.5Z" fill="#FC1A02"/>
<path d="M24.4043 18.551C23.9953 17.324 22.8513 16.5 21.5583 16.5H18.4413C17.1483 16.5 16.0043 17.324 15.5953 18.551L13.0513 26.183C12.9493 26.488 13.0013 26.823 13.1893 27.084C13.3773 27.345 13.6793 27.499 14.0003 27.499H16.0003V31.499C16.0003 32.051 16.4483 32.499 17.0003 32.499H23.0003C23.5523 32.499 24.0003 32.051 24.0003 31.499V27.499H26.0003C26.3213 27.499 26.6233 27.345 26.8113 27.084C26.9993 26.823 27.0503 26.488 26.9493 26.183L24.4043 18.551Z" fill="#FC1A02"/>
</g>
<defs>
<clipPath id="clip0_436_9835">
<rect width="24" height="24" fill="white" transform="translate(8 8.5)"/>
</clipPath>
</defs>
</svg>
