<svg width="40" height="41" viewBox="0 0 40 41" fill="none" xmlns="http://www.w3.org/2000/svg">
<rect y="0.5" width="40" height="40" rx="6" fill="#EAEFFF"/>
<path d="M30.5 29.5H9.5C9.10218 29.5 8.72064 29.342 8.43934 29.0607C8.15804 28.7794 8 28.3978 8 28C8 27.6022 8.15804 27.2206 8.43934 26.9393C8.72064 26.658 9.10218 26.5 9.5 26.5H30.5C30.8978 26.5 31.2794 26.658 31.5607 26.9393C31.842 27.2206 32 27.6022 32 28C32 28.3978 31.842 28.7794 31.5607 29.0607C31.2794 29.342 30.8978 29.5 30.5 29.5Z" fill="#0236C7"/>
<path d="M29.0349 19C28.448 18.9997 27.8741 19.1735 27.386 19.4994C26.8978 19.8253 26.5173 20.2887 26.2925 20.8309C26.0678 21.3731 26.0089 21.9698 26.1233 22.5455C26.2378 23.1211 26.5204 23.65 26.9354 24.065C27.3505 24.48 27.8793 24.7626 28.4549 24.8771C29.0306 24.9915 29.6273 24.9326 30.1695 24.7079C30.7117 24.4831 31.1751 24.1026 31.501 23.6144C31.8269 23.1263 32.0007 22.5524 32.0004 21.9655C32 21.1791 31.6874 20.4251 31.1314 19.869C30.5753 19.313 29.8213 19.0004 29.0349 19Z" fill="#0236C7"/>
<path d="M21.5004 20.4999H15.6774L16.8504 18.1704C17.0138 17.8434 17.0521 17.468 16.9582 17.1147C16.8643 16.7615 16.6446 16.4547 16.3404 16.2519L10.5849 12.4194L8.91992 14.9154L13.5699 18.0144L12.2439 20.6574C12.015 21.1149 11.9069 21.6232 11.9298 22.1342C11.9527 22.6452 12.1058 23.1419 12.3747 23.577C12.6436 24.0121 13.0193 24.3713 13.4661 24.6203C13.9129 24.8694 14.4159 25 14.9274 24.9999H20.0004C21.1939 24.9999 22.3385 24.5258 23.1824 23.6819C24.0263 22.838 24.5004 21.6934 24.5004 20.4999V14.4999H21.5004V20.4999Z" fill="#0236C7"/>
</svg>
