<svg width="24" height="24" viewBox="0 0 24 24" fill="none" xmlns="http://www.w3.org/2000/svg">
<path d="M12 2C10.0222 2 8.08879 2.58649 6.4443 3.6853C4.79981 4.78412 3.51809 6.3459 2.76121 8.17316C2.00433 10.0004 1.8063 12.0111 2.19215 13.9509C2.578 15.8907 3.53041 17.6725 4.92894 19.0711C6.32746 20.4696 8.10929 21.422 10.0491 21.8078C11.9889 22.1937 13.9996 21.9957 15.8268 21.2388C17.6541 20.4819 19.2159 19.2002 20.3147 17.5557C21.4135 15.9112 22 13.9778 22 12C21.9979 9.34848 20.9436 6.80618 19.0687 4.93127C17.1938 3.05637 14.6515 2.00212 12 2ZM12 20.6C10.2991 20.6 8.63636 20.0956 7.2221 19.1506C5.80784 18.2057 4.70555 16.8625 4.05464 15.2911C3.40373 13.7196 3.23342 11.9905 3.56525 10.3222C3.89708 8.65399 4.71615 7.12161 5.91889 5.91888C7.12162 4.71615 8.65399 3.89708 10.3222 3.56525C11.9905 3.23341 13.7196 3.40372 15.2911 4.05464C16.8625 4.70555 18.2057 5.80783 19.1506 7.22209C20.0956 8.63636 20.6 10.2991 20.6 12C20.5974 14.2805 19.6906 16.4669 18.0785 18.08C16.4664 19.693 14.2805 20.601 12 20.605V20.6Z" fill="#2C2C2C"/>
<path d="M12.0008 10.3722C11.8151 10.3722 11.6371 10.4459 11.5058 10.5772C11.3745 10.7085 11.3008 10.8865 11.3008 11.0722V15.7222C11.3008 15.9078 11.3745 16.0859 11.5058 16.2172C11.6371 16.3484 11.8151 16.4222 12.0008 16.4222C12.1864 16.4222 12.3645 16.3484 12.4958 16.2172C12.627 16.0859 12.7008 15.9078 12.7008 15.7222V11.0702C12.7003 10.8849 12.6263 10.7074 12.4951 10.5765C12.3638 10.4457 12.1861 10.3722 12.0008 10.3722Z" fill="#2C2C2C"/>
<path d="M12.0008 7.34399C11.8794 7.34529 11.7595 7.37043 11.6478 7.41799C11.5348 7.46658 11.4309 7.53424 11.3408 7.61799C11.255 7.70654 11.1871 7.81077 11.1408 7.92499C11.0917 8.03639 11.0664 8.15677 11.0664 8.27849C11.0664 8.40021 11.0917 8.5206 11.1408 8.63199C11.1827 8.74671 11.2492 8.85088 11.3356 8.93724C11.4219 9.0236 11.5261 9.09007 11.6408 9.13199C11.8673 9.22507 12.1213 9.22507 12.3478 9.13199C12.4625 9.09007 12.5667 9.0236 12.6531 8.93724C12.7394 8.85088 12.8059 8.74671 12.8478 8.63199C12.8969 8.5206 12.9222 8.40021 12.9222 8.27849C12.9222 8.15677 12.8969 8.03639 12.8478 7.92499C12.8015 7.81077 12.7336 7.70654 12.6478 7.61799C12.5577 7.53424 12.4538 7.46658 12.3408 7.41799C12.2332 7.37206 12.1178 7.34695 12.0008 7.34399Z" fill="#2C2C2C"/>
</svg>
