<svg width="16" height="16" viewBox="0 0 16 16" fill="none" xmlns="http://www.w3.org/2000/svg">
<path d="M8 0.000244141C6.41775 0.000244141 4.87103 0.469436 3.55544 1.34849C2.23985 2.22754 1.21447 3.47697 0.608967 4.93878C0.00346627 6.40058 -0.15496 8.00912 0.153721 9.56096C0.462403 11.1128 1.22433 12.5383 2.34315 13.6571C3.46197 14.7759 4.88743 15.5378 6.43928 15.8465C7.99113 16.1552 9.59966 15.9968 11.0615 15.3913C12.5233 14.7858 13.7727 13.7604 14.6518 12.4448C15.5308 11.1292 16 9.58249 16 8.00024C15.9983 5.87903 15.1549 3.84518 13.655 2.34526C12.1551 0.845338 10.1212 0.00193908 8 0.000244141ZM8 14.8802C6.63927 14.8802 5.30909 14.4767 4.17768 13.7208C3.04627 12.9648 2.16444 11.8903 1.64371 10.6331C1.12298 9.37595 0.986734 7.99261 1.2522 6.65802C1.51767 5.32343 2.17292 4.09753 3.13511 3.13535C4.09729 2.17316 5.32319 1.51791 6.65778 1.25244C7.99237 0.986975 9.37571 1.12322 10.6329 1.64395C11.89 2.16468 12.9645 3.04651 13.7205 4.17792C14.4765 5.30933 14.88 6.63951 14.88 8.00024C14.8779 9.82465 14.1525 11.5738 12.8628 12.8642C11.5731 14.1546 9.82441 14.8811 8 14.8842V14.8802Z" fill="#001140"/>
<path d="M8.00141 6.698C7.85288 6.698 7.71045 6.757 7.60543 6.86202C7.50041 6.96704 7.44141 7.10948 7.44141 7.258V10.978C7.44141 11.1265 7.50041 11.269 7.60543 11.374C7.71045 11.479 7.85288 11.538 8.00141 11.538C8.14993 11.538 8.29237 11.479 8.39739 11.374C8.50241 11.269 8.56141 11.1265 8.56141 10.978V7.2564C8.56098 7.10815 8.5018 6.96613 8.39682 6.86145C8.29185 6.75678 8.14965 6.698 8.00141 6.698Z" fill="#001140"/>
<path d="M8.00143 4.27539C7.90432 4.27642 7.80837 4.29654 7.71903 4.33459C7.6286 4.37346 7.54552 4.42758 7.47343 4.49459C7.40482 4.56543 7.3505 4.64881 7.31343 4.74019C7.27418 4.82931 7.25391 4.92561 7.25391 5.02299C7.25391 5.12037 7.27418 5.21668 7.31343 5.30579C7.34697 5.39756 7.40014 5.4809 7.46923 5.54999C7.53832 5.61908 7.62166 5.67225 7.71343 5.70579C7.89461 5.78025 8.09784 5.78025 8.27903 5.70579C8.3708 5.67225 8.45413 5.61908 8.52322 5.54999C8.59231 5.4809 8.64549 5.39756 8.67903 5.30579C8.71828 5.21668 8.73855 5.12037 8.73855 5.02299C8.73855 4.92561 8.71828 4.82931 8.67903 4.74019C8.64196 4.64881 8.58763 4.56543 8.51903 4.49459C8.44693 4.42758 8.36385 4.37346 8.27343 4.33459C8.18732 4.29785 8.09502 4.27776 8.00143 4.27539Z" fill="#001140"/>
</svg>
