<svg width="16" height="16" viewBox="0 0 16 16" fill="none" xmlns="http://www.w3.org/2000/svg">
<path d="M12.6659 2.66802H10.6659V0.667981C10.6713 0.579011 10.6578 0.489897 10.6263 0.40654C10.5947 0.323182 10.5458 0.247483 10.4827 0.184453C10.4197 0.121424 10.344 0.0725023 10.2606 0.040928C10.1773 0.00935368 10.0882 -0.00415318 9.9992 0.00130167H5.99912C5.91015 -0.00415318 5.82104 0.00935368 5.73768 0.040928C5.65433 0.0725023 5.57863 0.121424 5.5156 0.184453C5.45257 0.247483 5.40365 0.323182 5.37207 0.40654C5.3405 0.489897 5.32699 0.579011 5.33244 0.667981V2.66802H3.33241C3.06841 2.66313 2.80615 2.71153 2.56128 2.81031C2.31642 2.90909 2.09399 3.05623 1.90728 3.24294C1.72058 3.42964 1.57344 3.65207 1.47466 3.89693C1.37588 4.1418 1.32748 4.40407 1.33237 4.66806V6.00142H14.666V4.66806C14.6708 4.40407 14.6224 4.1418 14.5237 3.89693C14.4249 3.65207 14.2777 3.42964 14.091 3.24294C13.9043 3.05623 13.6819 2.90909 13.437 2.81031C13.1922 2.71153 12.9299 2.66313 12.6659 2.66802ZM6.6658 1.33466H9.33252V2.66802H6.6658V1.33466Z" fill="#00113F"/>
<path d="M1.33203 7.33191V13.9987C1.33203 14.1755 1.40227 14.3451 1.5273 14.4701C1.65232 14.5951 1.8219 14.6654 1.99871 14.6654H2.66539V15.3321C2.65994 15.421 2.67344 15.5101 2.70502 15.5935C2.73659 15.6769 2.78551 15.7526 2.84854 15.8156C2.91157 15.8786 2.98727 15.9275 3.07063 15.9591C3.15399 15.9907 3.2431 16.0042 3.33207 15.9987C3.42104 16.0042 3.51015 15.9907 3.59351 15.9591C3.67687 15.9275 3.75257 15.8786 3.8156 15.8156C3.87863 15.7526 3.92755 15.6769 3.95912 15.5935C3.9907 15.5101 4.0042 15.421 3.99875 15.3321V14.6654H11.9989V15.3321C11.9989 15.5089 12.0691 15.6785 12.1942 15.8035C12.3192 15.9285 12.4888 15.9987 12.6656 15.9987C12.8424 15.9987 13.012 15.9285 13.137 15.8035C13.262 15.6785 13.3323 15.5089 13.3323 15.3321V14.6654H13.9989C14.1758 14.6654 14.3453 14.5951 14.4704 14.4701C14.5954 14.3451 14.6656 14.1755 14.6656 13.9987V7.33191H1.33203ZM9.33219 10.6653H6.66547C6.48865 10.6653 6.31908 10.5951 6.19405 10.47C6.06903 10.345 5.99879 10.1754 5.99879 9.99863C5.99879 9.82181 6.06903 9.65224 6.19405 9.52721C6.31908 9.40219 6.48865 9.33195 6.66547 9.33195H9.33219C9.509 9.33195 9.67857 9.40219 9.8036 9.52721C9.92863 9.65224 9.99887 9.82181 9.99887 9.99863C9.99887 10.1754 9.92863 10.345 9.8036 10.47C9.67857 10.5951 9.509 10.6653 9.33219 10.6653Z" fill="#00113F"/>
</svg>
