<svg width="48" height="49" viewBox="0 0 48 49" fill="none" xmlns="http://www.w3.org/2000/svg">
<path d="M30 1.00012H18C17.2044 1.00012 16.4413 1.31619 15.8787 1.8788C15.3161 2.44141 15 3.20447 15 4.00012V10.0001C15 10.2653 15.1054 10.5197 15.2929 10.7072C15.4804 10.8948 15.7348 11.0001 16 11.0001H32C32.2652 11.0001 32.5196 10.8948 32.7071 10.7072C32.8946 10.5197 33 10.2653 33 10.0001V4.00012C33 3.20447 32.6839 2.44141 32.1213 1.8788C31.5587 1.31619 30.7956 1.00012 30 1.00012Z" fill="#FC1A02"/>
<path d="M36.3314 13.9821C36.2036 13.0201 35.7312 12.137 35.0019 11.4967C34.2726 10.8564 33.3359 10.5023 32.3654 10.5001H15.6334C14.6627 10.5024 13.7258 10.8566 12.9965 11.4971C12.2672 12.1376 11.7949 13.0209 11.6674 13.9831L9.00836 34.3711C8.99002 34.5121 9.00195 34.6554 9.04335 34.7914C9.08475 34.9274 9.15467 35.053 9.24846 35.1598C9.34224 35.2666 9.45772 35.3523 9.5872 35.4109C9.71669 35.4696 9.85719 35.5 9.99936 35.5001H37.9994C38.1415 35.5 38.282 35.4696 38.4115 35.4109C38.541 35.3523 38.6565 35.2666 38.7503 35.1598C38.844 35.053 38.914 34.9274 38.9554 34.7914C38.9968 34.6554 39.0087 34.5121 38.9904 34.3711L36.3314 13.9821Z" fill="#FED1CC"/>
<path d="M30.9978 26.0001H16.9978C16.856 26.0001 16.7159 25.9699 16.5866 25.9116C16.4574 25.8533 16.3421 25.7681 16.2483 25.6618C16.1545 25.5555 16.0843 25.4305 16.0425 25.2951C16.0007 25.1596 15.9882 25.0168 16.0058 24.8761L17.0058 16.8761C17.036 16.6343 17.1535 16.4119 17.3361 16.2505C17.5188 16.0892 17.7541 16.0002 17.9978 16.0001H29.9978C30.2415 16.0002 30.4767 16.0892 30.6594 16.2505C30.8421 16.4119 30.9595 16.6343 30.9898 16.8761L31.9898 24.8761C32.0073 25.0168 31.9948 25.1596 31.953 25.2951C31.9112 25.4305 31.8411 25.5555 31.7472 25.6618C31.6534 25.7681 31.5381 25.8533 31.4089 25.9116C31.2797 25.9699 31.1395 26.0001 30.9978 26.0001ZM18.1308 24.0001H29.8648L29.1148 18.0001H18.8808L18.1308 24.0001Z" fill="#FC1A02"/>
<path d="M19.998 1.00012H27.998V2.33346C27.998 3.25393 27.2519 4.00012 26.3314 4.00012H21.6647C20.7442 4.00012 19.998 3.25393 19.998 2.33346V1.00012Z" fill="#FED1CC"/>
<path d="M33.9961 45.5H24.9961V38.5C24.9961 37.9477 24.5488 37.5 23.9961 37.5C23.4434 37.5 22.9961 37.9477 22.9961 38.5V45.5H13.9961C13.4434 45.5 12.9961 45.9478 12.9961 46.5C12.9961 47.0522 13.4434 47.5 13.9961 47.5H33.9961C34.5488 47.5 34.9961 47.0522 34.9961 46.5C34.9961 45.9478 34.5488 45.5 33.9961 45.5Z" fill="#2C2C2C"/>
<path d="M7.99805 37.5H4.99805V25.5H6.99805C7.55078 25.5 7.99805 25.0522 7.99805 24.5C7.99805 23.9477 7.55078 23.5 6.99805 23.5H3.99805C3.44532 23.5 2.99805 23.9477 2.99805 24.5V38.5C2.99805 39.0522 3.44532 39.5 3.99805 39.5H7.99805C8.55078 39.5 8.99805 39.0522 8.99805 38.5C8.99805 37.9477 8.55078 37.5 7.99805 37.5Z" fill="#2C2C2C"/>
<path d="M43.9961 23.4999H40.9961C40.4434 23.4999 39.9961 23.9476 39.9961 24.4999C39.9961 25.0521 40.4434 25.4999 40.9961 25.4999H42.9961V37.4999H37.9961C37.4434 37.4999 36.9961 37.9476 36.9961 38.4999C36.9961 39.0521 37.4434 39.4999 37.9961 39.4999H43.9961C44.5488 39.4999 44.9961 39.0521 44.9961 38.4999V24.4999C44.9961 23.9476 44.5488 23.4999 43.9961 23.4999Z" fill="#2C2C2C"/>
<path d="M35.9961 30.4998H11.9961C9.23467 30.4998 6.99609 32.7383 6.99609 35.4998V39.4998H40.9961V35.4998C40.9961 32.7383 38.7575 30.4998 35.9961 30.4998Z" fill="#FC1A02"/>
</svg>
