<svg width="32" height="32" viewBox="0 0 32 32" fill="none" xmlns="http://www.w3.org/2000/svg">
<path d="M26.1205 5.87895C25.558 5.31715 24.7955 5.00159 24.0005 5.00159C23.2055 5.00159 22.4431 5.31715 21.8805 5.87895L18.2685 9.46495L6.27355 6.03895C6.10223 5.99006 5.92096 5.98783 5.74849 6.03249C5.57602 6.07714 5.41861 6.16706 5.29255 6.29295L4.29255 7.29295C4.18936 7.39623 4.11005 7.52086 4.06017 7.65807C4.01029 7.79528 3.99106 7.94175 4.00383 8.08718C4.0166 8.23262 4.06107 8.37349 4.13409 8.49991C4.20712 8.62633 4.30694 8.73523 4.42655 8.81895L12.9265 14.7709L11.6475 16.0429L10.1695 17.9129L8.52255 20.5999L6.24155 20.0299C6.02948 19.9772 5.80598 19.9954 5.60523 20.0817C5.40447 20.168 5.23751 20.3177 5.12989 20.5079C5.02226 20.6981 4.9799 20.9183 5.00928 21.1348C5.03865 21.3514 5.13815 21.5523 5.29255 21.7069L6.87455 23.2889L6.14655 24.4779C6.02936 24.6698 5.98024 24.8955 6.0071 25.1187C6.03397 25.3419 6.13526 25.5496 6.29463 25.7081C6.454 25.8667 6.66215 25.9669 6.88548 25.9926C7.10881 26.0184 7.3343 25.9681 7.52555 25.8499L8.70555 25.1199L10.2925 26.7069C10.4472 26.8615 10.6483 26.9612 10.865 26.9905C11.0817 27.0199 11.3021 26.9775 11.4923 26.8697C11.6826 26.7619 11.8323 26.5947 11.9185 26.3938C12.0047 26.1928 12.0226 25.9691 11.9695 25.7569L11.3935 23.4569L14.0935 21.7879L15.8995 20.3519L26.0415 10.1999C26.5028 9.758 26.8191 9.18648 26.9485 8.56095C27.0397 8.08027 27.0119 7.5846 26.8676 7.11714C26.7232 6.64967 26.4668 6.22459 26.1205 5.87895Z" fill="#232323"/>
<path d="M22.9999 16.0809L18.3789 20.7059L23.1859 27.5729C23.2696 27.6926 23.3785 27.7925 23.505 27.8656C23.6315 27.9387 23.7724 27.9832 23.9179 27.9959C23.9452 27.9986 23.9725 27.9999 23.9999 27.9999C24.2651 27.9999 24.5194 27.8945 24.7069 27.7069L25.7069 26.7069C25.8353 26.5786 25.9263 26.4176 25.9701 26.2415C26.014 26.0653 26.0091 25.8805 25.9559 25.7069L22.9999 16.0809Z" fill="#232323"/>
</svg>
