<svg width="16" height="15" viewBox="0 0 16 15" fill="none" xmlns="http://www.w3.org/2000/svg">
<path d="M15.9636 6.566C15.8422 5.97585 15.5186 5.44657 15.0487 5.06942C14.5788 4.69227 13.9921 4.49089 13.3896 4.5H3.80862L2.94662 2.776C2.90513 2.69321 2.84146 2.62356 2.76271 2.57483C2.68397 2.52609 2.59323 2.50019 2.50062 2.5H0.500621C0.421352 2.4999 0.343197 2.51865 0.272601 2.5547C0.202005 2.59075 0.140992 2.64307 0.0945955 2.70734C0.0481989 2.77162 0.0177483 2.846 0.00575556 2.92435C-0.00623715 3.00271 0.000571761 3.08279 0.0256206 3.158L1.68362 8.132C1.81626 8.53025 2.07085 8.87667 2.41131 9.12219C2.75178 9.36771 3.16086 9.49989 3.58062 9.5H6.61662L4.07062 13.743C4.0251 13.819 4.00058 13.9056 3.99955 13.9942C3.99852 14.0827 4.02102 14.17 4.06476 14.247C4.10849 14.324 4.17189 14.388 4.24848 14.4324C4.32506 14.4769 4.41207 14.5002 4.50062 14.5H7.65062C7.9958 14.499 8.33492 14.4092 8.63529 14.2391C8.93567 14.069 9.18719 13.8245 9.36562 13.529L11.7826 9.5H13.5006C14.1637 9.5 14.7995 9.23661 15.2684 8.76777C15.7372 8.29893 16.0006 7.66304 16.0006 7C16.0005 6.85455 15.9881 6.70937 15.9636 6.566Z" fill="black"/>
<path d="M6.05198 3.22401C6.09362 3.30711 6.1576 3.37696 6.23674 3.42571C6.31588 3.47447 6.40703 3.5002 6.49998 3.50001H9.49998C9.58525 3.50001 9.66909 3.4782 9.74356 3.43666C9.81802 3.39513 9.88062 3.33524 9.92541 3.26268C9.9702 3.19013 9.9957 3.10733 9.99948 3.02215C10.0033 2.93697 9.98518 2.85224 9.94698 2.77601L9.36098 1.60501C9.1958 1.27208 8.94065 0.992083 8.62444 0.796775C8.30824 0.601468 7.94364 0.498661 7.57198 0.500013H5.49998C5.41472 0.500016 5.33087 0.521823 5.25641 0.563362C5.18195 0.604901 5.11935 0.664791 5.07455 0.737342C5.02976 0.809892 5.00427 0.892692 5.00049 0.977873C4.99671 1.06305 5.01478 1.14778 5.05298 1.22401L6.05198 3.22401Z" fill="black"/>
</svg>
