<svg width="21" height="21" viewBox="0 0 21 21" fill="none" xmlns="http://www.w3.org/2000/svg">
<g clip-path="url(#clip0_186_1945)">
<path d="M18.1802 3.01918L10.6802 1.35251C10.561 1.32667 10.4377 1.32667 10.3185 1.35251L2.81852 3.01918C2.63332 3.06034 2.46772 3.16347 2.34908 3.31151C2.23044 3.45954 2.16586 3.64363 2.16602 3.83334V12.1667C2.16602 14.3768 3.04399 16.4964 4.60679 18.0592C6.1696 19.622 8.28921 20.5 10.4993 20.5C12.7095 20.5 14.8291 19.622 16.3919 18.0592C17.9547 16.4964 18.8327 14.3768 18.8327 12.1667V3.83334C18.8328 3.64363 18.7683 3.45954 18.6496 3.31151C18.531 3.16347 18.3654 3.06034 18.1802 3.01918ZM14.666 14.6667C14.666 14.8877 14.5782 15.0997 14.4219 15.2559C14.2657 15.4122 14.0537 15.5 13.8327 15.5H7.16602C6.945 15.5 6.73304 15.4122 6.57676 15.2559C6.42048 15.0997 6.33268 14.8877 6.33268 14.6667V10.5C6.33268 10.279 6.42048 10.067 6.57676 9.91076C6.73304 9.75447 6.945 9.66668 7.16602 9.66668H7.99935V8.00001C7.99935 7.33697 8.26274 6.70108 8.73158 6.23224C9.20042 5.7634 9.83631 5.50001 10.4993 5.50001C11.1624 5.50001 11.7983 5.7634 12.2671 6.23224C12.736 6.70108 12.9993 7.33697 12.9993 8.00001V9.66668H13.8327C14.0537 9.66668 14.2657 9.75447 14.4219 9.91076C14.5782 10.067 14.666 10.279 14.666 10.5V14.6667Z" fill="#001140"/>
<path d="M10.4993 7.16669C10.2783 7.16669 10.0664 7.25448 9.91009 7.41076C9.75381 7.56705 9.66602 7.77901 9.66602 8.00002V9.66669H11.3327V8.00002C11.3327 7.77901 11.2449 7.56705 11.0886 7.41076C10.9323 7.25448 10.7204 7.16669 10.4993 7.16669Z" fill="#001140"/>
</g>
<defs>
<clipPath id="clip0_186_1945">
<rect width="20" height="20" fill="white" transform="translate(0.5 0.5)"/>
</clipPath>
</defs>
</svg>
