<svg width="24" height="26" viewBox="0 0 24 26" fill="none" xmlns="http://www.w3.org/2000/svg">
<path d="M2.00043 11.9799C2.06743 11.9939 2.13443 11.9999 2.20043 11.9999C2.66643 11.9999 3.08343 11.6729 3.17943 11.1989C4.02643 7.02695 7.73543 3.99995 11.9994 3.99995C13.8204 3.99995 15.5614 4.54395 17.0384 5.54695L13.9184 8.66694L23.2154 10.2159L21.6664 0.918945L18.4684 4.11695C16.5984 2.74995 14.3554 1.99995 11.9994 1.99995C6.78843 1.99995 2.25443 5.70095 1.21943 10.8009C1.10943 11.3419 1.45943 11.8699 2.00043 11.9799Z" fill="#081F8F"/>
<path d="M21.9982 14.02C21.4572 13.909 20.9292 14.26 20.8192 14.801C19.9722 18.973 16.2632 22 11.9992 22C10.1782 22 8.4372 21.456 6.9602 20.453L10.0802 17.333L0.783203 15.784L2.3322 25.081L5.5302 21.883C7.4002 23.25 9.6432 24 11.9992 24C17.2102 24 21.7442 20.299 22.7792 15.199C22.8892 14.658 22.5392 14.13 21.9982 14.02Z" fill="#081F8F"/>
</svg>
