<svg width="21" height="21" viewBox="0 0 21 21" fill="none" xmlns="http://www.w3.org/2000/svg">
<path d="M18.834 3.83333C16.2032 3.83333 13.1132 2.90749 10.9632 1.47333C10.6832 1.28583 10.319 1.28583 10.039 1.47333C7.88815 2.90749 4.79815 3.83333 2.16732 3.83333C1.70732 3.83333 1.33398 4.20583 1.33398 4.66666C1.33398 11.645 4.63815 17.2275 10.1723 19.5992C10.2773 19.6442 10.389 19.6667 10.5007 19.6667C10.6123 19.6667 10.724 19.6442 10.829 19.5992C16.3632 17.2275 19.6673 11.645 19.6673 4.66666C19.6673 4.20583 19.294 3.83333 18.834 3.83333ZM10.5007 17.9208V10.5H3.95148C3.40982 8.96666 3.08982 7.27749 3.01732 5.47249C5.56232 5.30999 8.36898 4.44333 10.5007 3.15416V10.5H17.0498C15.8582 13.8708 13.5915 16.4883 10.5007 17.9208Z" fill="#001140"/>
</svg>
