<svg width="14" height="16" viewBox="0 0 14 16" fill="none" xmlns="http://www.w3.org/2000/svg">
<path d="M8.25 5.49951C8.25 5.16799 8.1183 4.85005 7.88388 4.61563C7.64946 4.38121 7.33152 4.24951 7 4.24951C6.66848 4.24951 6.35054 4.38121 6.11612 4.61563C5.8817 4.85005 5.75 5.16799 5.75 5.49951V6.99951H8.25V5.49951Z" fill="#164C28"/>
<path d="M13.165 1.0135L7.165 0.0135011C7.05574 -0.00450037 6.94426 -0.00450037 6.835 0.0135011L0.835 1.0135C0.601682 1.05253 0.389756 1.17302 0.236878 1.35354C0.0839997 1.53406 6.9448e-05 1.76294 0 1.9995V8.9995C0 10.856 0.737498 12.6365 2.05025 13.9492C3.36301 15.262 5.14348 15.9995 7 15.9995C8.85652 15.9995 10.637 15.262 11.9497 13.9492C13.2625 12.6365 14 10.856 14 8.9995V1.9995C13.9999 1.76294 13.916 1.53406 13.7631 1.35354C13.6102 1.17302 13.3983 1.05253 13.165 1.0135ZM11 10.9995C11 11.2647 10.8946 11.5191 10.7071 11.7066C10.5196 11.8941 10.2652 11.9995 10 11.9995H4C3.73478 11.9995 3.48043 11.8941 3.29289 11.7066C3.10536 11.5191 3 11.2647 3 10.9995V7.9995C3 7.73428 3.10536 7.47993 3.29289 7.29239C3.48043 7.10486 3.73478 6.9995 4 6.9995H4.25V5.4995C4.25 4.77016 4.53973 4.07068 5.05546 3.55496C5.57118 3.03923 6.27065 2.7495 7 2.7495C7.72935 2.7495 8.42882 3.03923 8.94454 3.55496C9.46027 4.07068 9.75 4.77016 9.75 5.4995V6.9995H10C10.2652 6.9995 10.5196 7.10486 10.7071 7.29239C10.8946 7.47993 11 7.73428 11 7.9995V10.9995Z" fill="#164C28"/>
</svg>
