<svg width="16" height="17" viewBox="0 0 16 17" fill="none" xmlns="http://www.w3.org/2000/svg">
<g clip-path="url(#clip0_70_5481)">
<path d="M8 0.5C6.41775 0.5 4.87103 0.969192 3.55544 1.84824C2.23985 2.72729 1.21447 3.97672 0.608967 5.43853C0.00346625 6.90034 -0.15496 8.50887 0.153721 10.0607C0.462403 11.6126 1.22433 13.038 2.34315 14.1569C3.46197 15.2757 4.88743 16.0376 6.43928 16.3463C7.99113 16.655 9.59966 16.4965 11.0615 15.891C12.5233 15.2855 13.7727 14.2602 14.6518 12.9446C15.5308 11.629 16 10.0823 16 8.5C15.9937 6.38022 15.1488 4.34906 13.6499 2.85014C12.1509 1.35122 10.1198 0.506331 8 0.5ZM8 14.5C6.81332 14.5 5.65328 14.1481 4.66658 13.4888C3.67989 12.8295 2.91085 11.8925 2.45673 10.7961C2.0026 9.69974 1.88378 8.49334 2.11529 7.32946C2.3468 6.16557 2.91825 5.09647 3.75736 4.25736C4.59648 3.41824 5.66558 2.8468 6.82946 2.61529C7.99335 2.38378 9.19975 2.5026 10.2961 2.95672C11.3925 3.41085 12.3295 4.17988 12.9888 5.16658C13.6481 6.15327 14 7.31331 14 8.5C13.9953 10.0898 13.3616 11.6132 12.2374 12.7374C11.1132 13.8616 9.58984 14.4953 8 14.5Z" fill="#232323"/>
<path d="M11.5 7.5H9V5C9 4.73478 8.89464 4.48043 8.70711 4.29289C8.51957 4.10536 8.26522 4 8 4C7.73478 4 7.48043 4.10536 7.29289 4.29289C7.10536 4.48043 7 4.73478 7 5V8.5C7 8.76522 7.10536 9.01957 7.29289 9.20711C7.48043 9.39464 7.73478 9.5 8 9.5H11.5C11.7652 9.5 12.0196 9.39464 12.2071 9.20711C12.3946 9.01957 12.5 8.76522 12.5 8.5C12.5 8.23478 12.3946 7.98043 12.2071 7.79289C12.0196 7.60536 11.7652 7.5 11.5 7.5Z" fill="#232323"/>
</g>
<defs>
<clipPath id="clip0_70_5481">
<rect width="16" height="16" fill="white" transform="translate(0 0.5)"/>
</clipPath>
</defs>
</svg>
