<svg width="21" height="21" viewBox="0 0 21 21" fill="none" xmlns="http://www.w3.org/2000/svg">
<g clip-path="url(#clip0_186_1952)">
<path d="M10.5 0.500008C7.84872 0.502875 5.30684 1.55736 3.4321 3.43211C1.55736 5.30685 0.502868 7.84872 0.5 10.5C0.5 10.721 0.587797 10.933 0.744078 11.0893C0.900358 11.2455 1.11232 11.3333 1.33333 11.3333C1.55435 11.3333 1.76631 11.2455 1.92259 11.0893C2.07887 10.933 2.16667 10.721 2.16667 10.5C2.16241 8.63387 2.78321 6.82005 3.93006 5.34789C5.0769 3.87574 6.68371 2.83004 8.49419 2.37762C10.3047 1.9252 12.2145 2.09211 13.919 2.85172C15.6236 3.61134 17.0247 4.91991 17.8987 6.56868C18.7728 8.21746 19.0696 10.1115 18.7417 11.9486C18.4138 13.7857 17.4801 15.4601 16.0896 16.7046C14.6991 17.9492 12.9318 18.6923 11.0697 18.8153C9.20764 18.9383 7.35799 18.4342 5.81583 17.3833L7.32 15.5C7.36683 15.441 7.39678 15.3704 7.40668 15.2957C7.41658 15.2211 7.40605 15.1451 7.37621 15.0759C7.34637 15.0068 7.29834 14.947 7.23723 14.903C7.17612 14.8589 7.10422 14.8323 7.02917 14.8258L1.46917 14.3525C1.40086 14.3467 1.33216 14.3578 1.26917 14.3848C1.20617 14.4119 1.15083 14.4541 1.10806 14.5077C1.06528 14.5613 1.03638 14.6246 1.02393 14.692C1.01147 14.7594 1.01585 14.8289 1.03667 14.8942L2.73833 20.2083C2.76131 20.28 2.80327 20.3441 2.85976 20.3939C2.91625 20.4436 2.98516 20.4771 3.05917 20.4908C3.08415 20.4958 3.10954 20.4983 3.135 20.4983C3.19766 20.4983 3.2595 20.4841 3.31591 20.4568C3.37232 20.4295 3.42186 20.3899 3.46083 20.3408L4.77583 18.6908C6.06287 19.5923 7.54421 20.1777 9.09976 20.3997C10.6553 20.6217 12.2413 20.474 13.7291 19.9686C15.2169 19.4632 16.5647 18.6142 17.6631 17.4907C18.7616 16.3671 19.5798 15.0005 20.0514 13.5016C20.5231 12.0028 20.6349 10.4139 20.3778 8.86373C20.1207 7.3136 19.5019 5.84587 18.5716 4.57954C17.6413 3.31322 16.4257 2.28394 15.0233 1.57515C13.621 0.866369 12.0713 0.498033 10.5 0.500008Z" fill="#001140"/>
<path d="M10.4993 3.83331C10.2783 3.83331 10.0664 3.92111 9.91009 4.07739C9.75381 4.23367 9.66602 4.44563 9.66602 4.66665V10.5C9.66602 10.721 9.75381 10.933 9.91009 11.0892C10.0664 11.2455 10.2783 11.3333 10.4993 11.3333H16.3327C16.5537 11.3333 16.7657 11.2455 16.9219 11.0892C17.0782 10.933 17.166 10.721 17.166 10.5C17.166 10.279 17.0782 10.067 16.9219 9.91072C16.7657 9.75444 16.5537 9.66665 16.3327 9.66665H11.3327V4.66665C11.3327 4.44563 11.2449 4.23367 11.0886 4.07739C10.9323 3.92111 10.7204 3.83331 10.4993 3.83331Z" fill="#001140"/>
</g>
<defs>
<clipPath id="clip0_186_1952">
<rect width="20" height="20" fill="white" transform="translate(0.5 0.5)"/>
</clipPath>
</defs>
</svg>
