<svg width="28" height="19" viewBox="0 0 28 19" fill="none" xmlns="http://www.w3.org/2000/svg">
<path d="M27.0609 1.56446C27.0609 0.997793 26.5564 0.538818 25.9334 0.538818H11.2754V10.7952H0V17.9747C0 18.5414 0.504574 19.0004 1.12754 19.0004H25.9334C26.5564 19.0004 27.0609 18.5414 27.0609 17.9747V1.56446Z" fill="#B41F30"/>
<path d="M27.0629 2.59009H11.2773V4.64137H27.0629V2.59009Z" fill="#E6E6E6"/>
<path d="M27.0629 6.69263H11.2773V8.74391H27.0629V6.69263Z" fill="#E6E6E6"/>
<path d="M0 10.7952V12.8464H27.0609V10.7952H11.2754H0Z" fill="#E6E6E6"/>
<path d="M27.0609 14.8979H0V16.9492H27.0609V14.8979Z" fill="#E6E6E6"/>
<path d="M11.2754 10.7952H0V1.56446C0 0.997793 0.504574 0.538818 1.12754 0.538818H11.2754V10.7952Z" fill="#00256A"/>
<path d="M5.63642 4.60132L5.27955 5.30286H4.43164L5.05179 5.88747L4.8229 6.7326L5.63642 6.31311L6.44994 6.7326L6.22104 5.88747L6.84119 5.30286H5.99215L5.63642 4.60132Z" fill="white"/>
<path d="M2.87609 2.09253L2.51978 2.79407H1.67188L2.29146 3.37868L2.06257 4.22381L2.87609 3.80432L3.69017 4.22381L3.46072 3.37868L4.08086 2.79407H3.23183L2.87609 2.09253Z" fill="white"/>
<path d="M8.39813 2.09253L8.75444 2.79407H9.60235L8.98276 3.37868L9.21165 4.22381L8.39813 3.80432L7.58405 4.22381L7.81351 3.37868L7.19336 2.79407H8.0424L8.39813 2.09253Z" fill="white"/>
<path d="M2.87609 9.24139L2.51978 8.53985H1.67188L2.29146 7.95523L2.06257 7.11011L2.87609 7.52959L3.69017 7.11011L3.46072 7.95523L4.08086 8.53985H3.23183L2.87609 9.24139Z" fill="white"/>
<path d="M8.39813 9.24139L8.75444 8.53985H9.60235L8.98276 7.95523L9.21165 7.11011L8.39813 7.52959L7.58405 7.11011L7.81351 7.95523L7.19336 8.53985H8.0424L8.39813 9.24139Z" fill="white"/>
</svg>
