<svg width="17" height="15" viewBox="0 0 17 15" fill="none" xmlns="http://www.w3.org/2000/svg">
<path d="M16.5254 12.527L9.91875 0.880978C9.75581 0.592042 9.50733 0.355499 9.20443 0.200978C8.79291 -0.00959142 8.31108 -0.0562822 7.86374 0.071061C7.4164 0.198404 7.03974 0.489481 6.81569 0.880978L0.21004 12.527C0.0655992 12.7833 -0.00662069 13.0711 0.000476985 13.3621C0.00757466 13.6532 0.0937457 13.9374 0.250523 14.187C0.407299 14.4366 0.629288 14.6429 0.894674 14.7856C1.16006 14.9283 1.45971 15.0025 1.76419 15.001H14.9713C15.2631 15.001 15.5505 14.9323 15.808 14.801C16.012 14.6974 16.1925 14.5563 16.3392 14.3857C16.4859 14.2151 16.5958 14.0185 16.6626 13.8071C16.7294 13.5957 16.7518 13.3737 16.7284 13.154C16.705 12.9343 16.6354 12.7212 16.5254 12.527ZM8.36774 13.001C8.16089 13.001 7.95869 12.9423 7.78669 12.8324C7.6147 12.7226 7.48065 12.5664 7.40149 12.3837C7.32234 12.2009 7.30162 11.9999 7.34198 11.8059C7.38233 11.6119 7.48194 11.4337 7.62821 11.2939C7.77448 11.154 7.96083 11.0588 8.16371 11.0202C8.36658 10.9816 8.57687 11.0014 8.76798 11.0771C8.95908 11.1528 9.12242 11.281 9.23734 11.4454C9.35226 11.6099 9.4136 11.8032 9.4136 12.001C9.4136 12.2662 9.30341 12.5205 9.10728 12.7081C8.91114 12.8956 8.64512 13.001 8.36774 13.001ZM9.4136 9.50098C9.4136 9.63359 9.35851 9.76076 9.26044 9.85453C9.16237 9.9483 9.02936 10.001 8.89067 10.001H7.84481C7.70612 10.001 7.57311 9.9483 7.47505 9.85453C7.37698 9.76076 7.32188 9.63359 7.32188 9.50098V5.50098C7.32188 5.36837 7.37698 5.24119 7.47505 5.14742C7.57311 5.05366 7.70612 5.00098 7.84481 5.00098H8.89067C9.02936 5.00098 9.16237 5.05366 9.26044 5.14742C9.35851 5.24119 9.4136 5.36837 9.4136 5.50098V9.50098Z" fill="#081F8F"/>
</svg>
